<svg xmlns="http://www.w3.org/2000/svg" viewBox="0 0 130 24" fill="none">
<rect x="0.0" width="24" height="24" rx="2" fill="#00B67A"/>
<path transform="translate(0.0 0)" d="M12 3.5l2.1 5.1 5.5.4-4.2 3.5 1.3 5.3L12 14.8 7.3 17.8l1.3-5.3L4.4 9l5.5-.4L12 3.5z" fill="#fff"/>
<rect x="26.5" width="24" height="24" rx="2" fill="#00B67A"/>
<path transform="translate(26.5 0)" d="M12 3.5l2.1 5.1 5.5.4-4.2 3.5 1.3 5.3L12 14.8 7.3 17.8l1.3-5.3L4.4 9l5.5-.4L12 3.5z" fill="#fff"/>
<rect x="53.0" width="24" height="24" rx="2" fill="#00B67A"/>
<path transform="translate(53.0 0)" d="M12 3.5l2.1 5.1 5.5.4-4.2 3.5 1.3 5.3L12 14.8 7.3 17.8l1.3-5.3L4.4 9l5.5-.4L12 3.5z" fill="#fff"/>
<rect x="79.5" width="24" height="24" rx="2" fill="#00B67A"/>
<path transform="translate(79.5 0)" d="M12 3.5l2.1 5.1 5.5.4-4.2 3.5 1.3 5.3L12 14.8 7.3 17.8l1.3-5.3L4.4 9l5.5-.4L12 3.5z" fill="#fff"/>
<rect x="106.0" width="24" height="24" rx="2" fill="#00B67A"/>
<path transform="translate(106.0 0)" d="M12 3.5l2.1 5.1 5.5.4-4.2 3.5 1.3 5.3L12 14.8 7.3 17.8l1.3-5.3L4.4 9l5.5-.4L12 3.5z" fill="#fff"/>
</svg>